# xmcd
#
# Track frame offsets:
#	150
#	15620
#	28895
#	43735
#	59775
#	78542
#	91290
#	102470
#	111485
#	123995
#	138375
#	153595
#
# Disc length: 2230 seconds
#
# Revision: 2
# Processed by: cddbd v1.5.2PL0 Copyright (c) Steve Scherf et al.
# Submitted via: EasyCDDAExtractor 15.3.0.1
#
DISCID=ab08b40c
DTITLE=Ednita Nazario - 12 Boleros - Coleccion De Oro
DYEAR=1999
DGENRE=Latin
TTITLE0=Mio
TTITLE1=Un Amor De Ayer
TTITLE2=Un Amor Mas
TTITLE3=Abrazame
TTITLE4=Como Es Grande Mi Amor Por Ti
TTITLE5=Me Esta Gustando
TTITLE6=Amigos
TTITLE7=Vengo De Regreso
TTITLE8=Dime
TTITLE9=Esclava Y Ama
TTITLE10=Mujer Sola
TTITLE11=Verde Amor
EXTD=
EXTT0=
EXTT1=
EXTT2=
EXTT3=
EXTT4=
EXTT5=
EXTT6=
EXTT7=
EXTT8=
EXTT9=
EXTT10=
EXTT11=
PLAYORDER=
